HIERARCHY
ROOT Hips
{
	OFFSET 0.00000 0.00000 0.00000
	CHANNELS 6 Xposition Yposition Zposition Zrotation Yrotation Xrotation 
	JOINT LHipJoint
	{
		OFFSET 0 0 0
		CHANNELS 3 Zrotation Yrotation Xrotation
		JOINT LeftHip
		{
			OFFSET 1.73240 -1.89999 0.57994
			CHANNELS 3 Zrotation Yrotation Xrotation
			JOINT LeftKnee
			{
				OFFSET 2.43106 -6.67930 0.00000
				CHANNELS 3 Zrotation Yrotation Xrotation
				JOINT LeftAnkle
				{
					OFFSET 2.78854 -7.66147 0.00000
					CHANNELS 3 Zrotation Yrotation Xrotation
					JOINT LeftToe
					{
						OFFSET 0.17314 -0.47571 2.01064
						CHANNELS 3 Zrotation Yrotation Xrotation
						End Site
						{
							OFFSET 0.00000 -0.00000 1.04147
						}
					}
				}
			}
		}
	}
	JOINT RHipJoint
	{
		OFFSET 0 0 0
		CHANNELS 3 Zrotation Yrotation Xrotation
		JOINT RightHip
		{
			OFFSET -1.57078 -1.89998 0.57994
			CHANNELS 3 Zrotation Yrotation Xrotation
			JOINT RightKnee
			{
				OFFSET -2.50166 -6.87326 0.00000
				CHANNELS 3 Zrotation Yrotation Xrotation
				JOINT RightAnkle
				{
					OFFSET -2.77304 -7.61886 0.00000
					CHANNELS 3 Zrotation Yrotation Xrotation
					JOINT RightToe
					{
						OFFSET -0.23513 -0.64602 2.11039
						CHANNELS 3 Zrotation Yrotation Xrotation
						End Site
						{
							OFFSET -0.00000 -0.00000 1.10597
						}
					}
				}
			}
		}
	}
	JOINT lowerback
	{
		OFFSET 0 0 0
		CHANNELS 3 Zrotation Yrotation Xrotation
		JOINT Chest
		{
			OFFSET -0.00908 2.00015 -0.35323
			CHANNELS 3 Zrotation Yrotation Xrotation
			JOINT Chest2
			{
				OFFSET 0.05647 2.02258 0.04270
				CHANNELS 3 Zrotation Yrotation Xrotation
				JOINT lowerneck
				{
					OFFSET 0 0 0
					CHANNELS 3 Zrotation Yrotation Xrotation
					JOINT Neck
					{
						OFFSET -0.02074 1.73711 0.13117
						CHANNELS 3 Zrotation Yrotation Xrotation
						JOINT Head
						{
							OFFSET -0.02359 1.73615 -0.24320
							CHANNELS 3 Zrotation Yrotation Xrotation
							End Site
							{
								OFFSET -0.00579 1.75982 -0.09688
							}
						}
					}
				}
				JOINT LeftCollar
				{
					OFFSET 0 0 0
					CHANNELS 3 Zrotation Yrotation Xrotation
					JOINT LeftShoulder
					{
						OFFSET 3.20537 1.11432 -0.27680
CHANNELS 3 Zrotation Xrotation Yrotation
						JOINT LeftElbow
						{
OFFSET 0 -5.059230 -0.000000
CHANNELS 3 Zrotation Xrotation Yrotation
							JOINT LeftWrist
							{
OFFSET 0 -3.519960 0.000000
CHANNELS 3 Zrotation Xrotation Yrotation
								JOINT lhand
								{
									OFFSET 0 0 0
CHANNELS 3 Zrotation Xrotation Yrotation
									JOINT LFingers
									{
OFFSET 0 -0.652380 0.000000
CHANNELS 3 Zrotation Xrotation Yrotation
										End Site
										{
OFFSET 0 -0.525960 0.000000
										}
									}
								}
								JOINT LThumb
								{
OFFSET 0 0.000000 0.000000
CHANNELS 3 Zrotation Xrotation Yrotation
									End Site
									{
OFFSET 0 -0.533990 0.533990
									}
								}
							}
						}
					}
				}
				JOINT RightCollar
				{
					OFFSET 0 0 0
					CHANNELS 3 Zrotation Yrotation Xrotation
					JOINT RightShoulder
					{
						OFFSET -2.96983 1.42602 -0.37449
CHANNELS 3 Zrotation Xrotation Yrotation
						JOINT RightElbow
						{
OFFSET 0 -5.408670 0.000000
CHANNELS 3 Zrotation Xrotation Yrotation
							JOINT RightWrist
							{
OFFSET 0 -3.129640 0.000000
CHANNELS 3 Zrotation Xrotation Yrotation
								JOINT rhand
								{
									OFFSET 0 0 0
CHANNELS 3 Zrotation Xrotation Yrotation
									JOINT RFingers
									{
OFFSET 0 -0.832710 0.000000
CHANNELS 3 Zrotation Xrotation Yrotation
										End Site
										{
OFFSET 0 -0.671350 0.000000
										}
									}
								}
								JOINT RThumb
								{
OFFSET 0 0.000000 0.000000
CHANNELS 3 Zrotation Xrotation Yrotation
									End Site
									{
OFFSET 0 -0.681600 0.681600
									}
								}
							}
						}
					}
				}
			}
		}
	}
}
MOTION
Frames: 6
Frame Time: 0.008333333333333333
0.368048 17.885169 4.070911 -6.840029 -1.616360 -3.887905 0.000000 0.000000 0.000000 -9.244785 -13.734159 -25.295852 5.935593 14.361556 44.715098 0.270622 -0.104811 -9.789640 0.756721 -5.553081 -15.493734 0.000000 0.000000 0.000000 34.527439 3.765694 2.457048 -2.021840 -8.911046 25.517717 -0.811357 -7.013535 -20.963683 -0.664705 -5.212181 14.515252 4.558423 0.814887 18.231781 3.740344 2.375974 0.972044 0.863816 1.029661 -9.174337 -1.396835 0.739373 -6.207246 0.578216 1.141169 26.831370 0.553740 0.465077 9.437181 0.000000 0.000000 0.000000 2.297907 7.684676 -4.216558 81.884975 -59.725502 52.979487 56.849786 65.150059 -36.020453 0.000000 0.000000 0.000000 -7.125000 0.000000 0.000000 59.589696 77.341050 -47.881249 0.000000 0.000000 0.000000 -8.668524 3.754465 13.550213 -27.965116 -39.083987 -10.101732 -12.013732 -9.865056 -4.179410 0.000000 0.000000 0.000000 7.125000 0.000000 0.000000 11.001047 25.686088 5.236414
0.377544 17.882228 4.205015 -6.944858 -1.853084 -3.814842 0.000000 0.000000 0.000000 -8.952190 -13.981355 -25.328813 5.509359 13.927312 42.963530 0.258496 0.157104 -9.661796 0.665027 -5.207175 -14.502282 0.000000 0.000000 0.000000 34.636520 3.656804 3.079801 -1.963377 -8.788657 25.136943 -0.824997 -6.972312 -21.061396 -0.600015 -4.954281 13.779142 4.719969 0.800591 18.206935 3.755945 2.392244 0.933426 0.785967 1.030028 -9.197304 -1.324007 0.817423 -6.168571 0.524669 1.251302 26.825379 0.533041 0.517455 9.427506 0.000000 0.000000 0.000000 2.056795 6.876135 -3.797258 76.859364 -59.271733 48.652465 54.855967 63.178663 -35.085663 0.000000 0.000000 0.000000 -7.125000 0.000000 0.000000 50.919987 76.133981 -39.508466 0.000000 0.000000 0.000000 -8.675614 3.646155 14.021313 -28.225816 -39.322403 -10.266810 -11.823388 -9.786262 -4.182039 0.000000 0.000000 0.000000 7.125000 0.000000 0.000000 11.142357 25.686042 5.307193
0.387040 17.881004 4.337988 -7.018312 -2.088188 -3.736054 0.000000 0.000000 0.000000 -8.680771 -14.279387 -25.341154 5.083313 13.472303 41.171775 0.242888 0.438333 -9.478471 0.589388 -4.915405 -13.667508 0.000000 0.000000 0.000000 34.704766 3.558805 3.690471 -1.904132 -8.663064 24.747193 -0.839882 -6.916003 -21.158605 -0.535933 -4.688174 13.021809 4.863777 0.790218 18.195642 3.754417 2.409436 0.892190 0.699085 1.030963 -9.230570 -1.184897 0.915814 -6.176554 0.447068 1.386150 26.802956 0.495215 0.585443 9.421250 0.000000 0.000000 0.000000 1.866053 6.074498 -3.374356 71.884923 -58.701193 44.382565 51.939824 60.039688 -33.761197 0.000000 0.000000 0.000000 -7.125000 0.000000 0.000000 39.114890 74.315009 -28.221830 0.000000 0.000000 0.000000 -8.683186 3.576942 14.525131 -28.518919 -39.589288 -10.452853 -11.684711 -9.831391 -4.401332 0.000000 0.000000 0.000000 7.125000 0.000000 0.000000 11.227595 25.468084 5.407554
0.396535 17.881466 4.471523 -6.917616 -2.261223 -3.604036 0.000000 0.000000 0.000000 -8.591880 -14.694302 -25.304555 4.656858 12.980564 39.305845 0.225084 0.736726 -9.259540 0.583124 -4.889687 -13.594311 0.000000 0.000000 0.000000 34.562592 3.458967 4.238459 -1.845244 -8.535530 24.353050 -0.873974 -6.773104 -21.369887 -0.473947 -4.412004 12.239392 4.879208 0.784085 18.090199 3.683923 2.390510 0.871286 0.620019 1.020149 -9.190938 -1.112095 0.960260 -6.111995 0.336415 1.462710 26.730419 0.450902 0.616700 9.384190 0.000000 0.000000 0.000000 1.822794 5.564098 -3.431859 67.852033 -58.035430 40.948570 49.082174 56.578723 -32.356936 0.000000 0.000000 0.000000 -7.125000 0.000000 0.000000 30.522486 72.015173 -20.317082 0.000000 0.000000 0.000000 -8.656941 3.448418 14.956664 -28.767987 -39.813363 -10.611974 -11.526315 -9.919227 -4.902105 0.000000 0.000000 0.000000 7.125000 0.000000 0.000000 11.304353 24.969157 5.579995
0.405283 17.876832 4.600804 -6.948086 -2.418972 -3.483096 0.000000 0.000000 0.000000 -8.344431 -15.086779 -25.238414 4.242182 12.465266 37.414253 0.200501 1.044562 -8.899813 0.585601 -4.899823 -13.623063 0.000000 0.000000 0.000000 34.572666 3.343095 4.795376 -1.783880 -8.399722 23.935348 -0.907506 -6.672181 -21.603560 -0.403453 -4.067680 11.268595 5.006124 0.782674 18.024582 3.647133 2.405614 0.869454 0.505614 1.021815 -9.149063 -1.041024 0.992506 -6.049728 0.262551 1.513093 26.627357 0.416918 0.639823 9.336659 0.000000 0.000000 0.000000 1.885506 5.070946 -3.678864 64.110968 -57.269587 37.789808 47.356117 54.459467 -31.422878 0.000000 0.000000 0.000000 -7.125000 0.000000 0.000000 25.944553 70.479330 -16.184294 0.000000 0.000000 0.000000 -8.562028 3.243234 15.251702 -28.941889 -39.968864 -10.723462 -11.451078 -9.897027 -5.169857 0.000000 0.000000 0.000000 7.125000 0.000000 0.000000 11.338620 24.702411 5.669045
0.413724 17.870588 4.727805 -7.027543 -2.568262 -3.362291 0.000000 0.000000 0.000000 -8.028992 -15.497790 -25.163603 3.839958 11.939721 35.525125 0.172145 1.408854 -8.486131 0.582875 -4.887774 -13.588786 0.000000 0.000000 0.000000 34.638811 3.222961 5.344895 -1.721294 -8.259196 23.504418 -0.934869 -6.613355 -21.810142 -0.330670 -3.689883 10.206445 5.170519 0.781666 17.997919 3.626722 2.434175 0.859037 0.383978 1.027909 -9.137478 -0.922068 1.032580 -6.014715 0.163042 1.573965 26.537565 0.367220 0.669820 9.299799 0.000000 0.000000 0.000000 1.997310 4.653545 -4.066822 60.640734 -56.466052 34.877450 46.281394 53.131921 -30.919608 0.000000 0.000000 0.000000 -7.125000 0.000000 0.000000 23.499511 69.582192 -14.093905 0.000000 0.000000 0.000000 -8.445636 3.013681 15.487318 -29.058681 -40.072829 -10.798525 -11.413662 -9.810424 -5.351266 0.000000 0.000000 0.000000 7.125000 0.000000 0.000000 11.352048 24.521610 5.724605
